<svg id="Layer_1" data-name="Layer 1" xmlns="http://www.w3.org/2000/svg" viewBox="0 0 238 100"><defs><style>.cls-1{fill:none;}.cls-2{fill:#005eb8;}</style></defs><g id="Layer_2" data-name="Layer 2"><rect class="cls-1" width="100" height="100"/></g><path class="cls-2" d="M228.48,13c-5.22-2.45-14.22-3.47-23.78-3.47-17,0-31,6.06-31,26.25,0,22.08,26.53,17.37,26.53,29.93,0,8.07-6.49,9.3-13,9.3-6.79,0-15-1.8-19.13-4.49l-4.88,15.94a86.67,86.67,0,0,0,24,4c18,0,34.32-5.6,34.32-27.25,0-23.78-26.54-19.63-26.54-30.72,0-6.28,3.08-7.54,11.31-7.54a38.77,38.77,0,0,1,17.13,3.62ZM90.09,89.15h20.8L117.8,55.6h24.57l-6.89,33.55h20.8l16.1-78.29H151.6L145.5,40.8H120.88L127,10.86H106.24Zm-80.57,0H29.09L39.88,35h.21L56.31,89.15h25.8L98.57,10.86H79L68.11,65.14h-.23L52,10.86H26.07ZM0,.27,238,0V100H0Z"/></svg>